<svg xmlns="http://www.w3.org/2000/svg" xmlns:dc="http://purl.org/dc/elements/1.1/" xmlns:ns2="http://creativecommons.org/ns#" xmlns:rdf="http://www.w3.org/1999/02/22-rdf-syntax-ns#" height="351.8" id="svg2" preserveAspectRatio="none" version="1.0" width="555.3">
 <metadata id="metadata7">
  <rdf:RDF>
   <ns2:Work>
    <dc:format>image/svg+xml</dc:format>
    <dc:type rdf:resource="http://purl.org/dc/dcmitype/StillImage" />
    <dc:title />
    <ns2:license rdf:resource="http://creativecommons.org/publicdomain/zero/1.0/" />
    <dc:date>2013-01-30</dc:date>
    <dc:creator>
     <ns2:Agent>
      <dc:title>U.S. Census Bureau, Abe.suleiman, Lokal_Profil</dc:title>
     </ns2:Agent>
    </dc:creator>
    <dc:source>https://commons.wikimedia.org/wiki/File:Usa_counties_large.svg</dc:source>
   </ns2:Work>
   <ns2:License rdf:about="http://creativecommons.org/publicdomain/zero/1.0/">
    <ns2:permits rdf:resource="http://creativecommons.org/ns#Reproduction" />
    <ns2:permits rdf:resource="http://creativecommons.org/ns#Distribution" />
    <ns2:permits rdf:resource="http://creativecommons.org/ns#DerivativeWorks" />
   </ns2:License>
  </rdf:RDF>
 </metadata>
 <style id="style_css_sheet" type="text/css">
  /* * Below are Cascading Style Sheet (CSS) definitions in use in this file, * which allow easily changing how counties are displayed. * * To e.g. colour two counties red simply go to the CSS insertion point and add: * .c02185, c02188 {fill:red} * * */ 
  .counties {fill:#d0d0d0;fill-rule:nonzero;stroke:#000000;stroke-width:0.178287;} 
  .State_Lines {fill:none;stroke:#221e1f;stroke-width:0.89143497;} 
  .separator {fill:none;stroke:#a9a9a9;stroke-width:2.3177309;} 
  /*CSS insertion point*/
 </style>
 <g class="counties" id="county-group" style="fill:#d0d0d0;stroke-width:.17829;stroke:#000" transform="matrix(.56118 0 0 .56118 -.000329 -.037981)">
  <path d="m879.7 231.28-0.20704 0.0117-0.21289 0.0254-0.21484 0.0371-0.21875 0.0508-0.22266 0.0664-0.22656 0.0801-0.27734 0.1269-0.25977 0.1387-0.24414 0.1504-0.22656 0.1621-0.21094 0.1719-0.1953 0.1816-0.1797 0.1934-0.1641 0.20311-0.1485 0.21289-0.1348 0.22071-0.1211 0.23242-0.1074 0.24023-0.0938 0.25-0.0801 0.25782-0.0684 0.26562-0.0547 0.27539-0.17187 0.0508 0.1875 0.70117 0.0176 0.11914 0.0215 0.11719 0.0274 0.11133 0.0624 0.21484 0.0351 0.10547 0.0371 0.10742 0.0352 0.10938 1.166 4.3594 0.47461 1.7774 0.50586 1.7988 3.0742-1.1035 0.2168-0.80078 0.64648-0.58594-1.0996-1.5059-0.67578-0.52929-0.17969-0.64258 0.16861-1.7285-1.028-0.55275-0.11514-0.56255 0.078-0.28513 0.15039-0.375 0.41797-0.39648 0.36328-0.75782 0.19336-0.90234 0.62109-1.2891 0.58789-0.70703-0.1875-0.0723-0.1875-0.0664-0.18945-0.0625-0.19141-0.0527-0.19335-0.0488-0.19532-0.0391-0.19726-0.0293-0.19922-0.0215-0.20313-0.01zm0.20791 4.8527 0.0845 0.46295 0.3073-0.0308-0.125-0.561z" id="New_Castle__DE" onmouseover="handleMouseOverCounty(&quot;New_Castle&quot;,abbrevToStates[&quot;DE&quot;])" style="fill:#d0d0d0" transform="translate(0 -.10698)" />
  <path class="c10005" d="m882.38 259.09-1.223-4.356 2.4229-0.633 1.0038-0.909 0.0606-0.346 0.29239-0.69 1.3978-0.996 1.3407-0.747 0.14441 0.618 0.19255 0.232 1.601 1.28 0.9057 0.69 0.63648 0.248 0.47424 0.09 0.35301-0.1 0.24782-0.193 0.041-0.137 0.44928 0.94 1.0768 3.145 0.78803 2.706 0.19255 0.786-5.1008 1.115-0.25852 0.06-0.6757 0.153-0.28348 0.05-0.24425 0.05-0.066 0.01-0.895 0.167-0.36727 0.07-1.5671 0.3h-0.0642l-1.2284 0.209-0.54021 0.09-0.20682-0.726-0.19255-0.657-0.24068-0.867-0.46712-1.665" id="Sussex__DE" onmouseover="handleMouseOverCounty(&quot;Sussex&quot;,abbrevToStates[&quot;DE&quot;])" style="fill:#d0d0d0" />
  <path class="c10001" d="m878.23 244.3 3.0729-1.103 0.21804-0.80091 0.64563-0.58712 1.519 0.9 0.77198 0.99 0.14441 0.208 0.42433 1.091 0.0499 0.378-0.13823 0.62334 0.65485 2.2955 1.0003 0.46585 0.68265 0.57138 0.40346 1.076-1.3407 0.747-1.3978 0.996-0.29239 0.69-0.0606 0.346-1.0038 0.909-2.4229 0.633-2.6101-9.296-0.32091-1.133" id="Kent__DE" onmouseover="handleMouseOverCounty(&quot;Kent&quot;,abbrevToStates[&quot;DE&quot;])" style="fill:#d0d0d0" />
  </g>
 </svg>