<svg xmlns="http://www.w3.org/2000/svg" xmlns:dc="http://purl.org/dc/elements/1.1/" xmlns:ns2="http://creativecommons.org/ns#" xmlns:rdf="http://www.w3.org/1999/02/22-rdf-syntax-ns#" height="351.8" id="svg2" preserveAspectRatio="none" version="1.0" width="555.3">
 <metadata id="metadata7">
  <rdf:RDF>
   <ns2:Work>
    <dc:format>image/svg+xml</dc:format>
    <dc:type rdf:resource="http://purl.org/dc/dcmitype/StillImage" />
    <dc:title />
    <ns2:license rdf:resource="http://creativecommons.org/publicdomain/zero/1.0/" />
    <dc:date>2013-01-30</dc:date>
    <dc:creator>
     <ns2:Agent>
      <dc:title>U.S. Census Bureau, Abe.suleiman, Lokal_Profil</dc:title>
     </ns2:Agent>
    </dc:creator>
    <dc:source>https://commons.wikimedia.org/wiki/File:Usa_counties_large.svg</dc:source>
   </ns2:Work>
   <ns2:License rdf:about="http://creativecommons.org/publicdomain/zero/1.0/">
    <ns2:permits rdf:resource="http://creativecommons.org/ns#Reproduction" />
    <ns2:permits rdf:resource="http://creativecommons.org/ns#Distribution" />
    <ns2:permits rdf:resource="http://creativecommons.org/ns#DerivativeWorks" />
   </ns2:License>
  </rdf:RDF>
 </metadata>
 <style id="style_css_sheet" type="text/css">
  /* * Below are Cascading Style Sheet (CSS) definitions in use in this file, * which allow easily changing how counties are displayed. * * To e.g. colour two counties red simply go to the CSS insertion point and add: * .c02185, c02188 {fill:red} * * */ 
  .counties {fill:#d0d0d0;fill-rule:nonzero;stroke:#000000;stroke-width:0.178287;} 
  .State_Lines {fill:none;stroke:#221e1f;stroke-width:0.89143497;} 
  .separator {fill:none;stroke:#a9a9a9;stroke-width:2.3177309;} 
  /*CSS insertion point*/
 </style>
 <g class="counties" id="county-group" style="fill:#d0d0d0;stroke-width:.17829;stroke:#000" transform="matrix(.56118 0 0 .56118 -.000329 -.037981)">
  <path class="c15007" d="m309.7 550.02h2.348l1.0109 0.672 0.33162 1.006v0.674l-0.67215 1.676v2.016l-1.3425 1.341-1.0038 0.675-3.3572-0.338-1.3443-1.341-2.0146-0.674-0.67215-0.67v-1.009l1.0091-1.343 3.3589-2.685h2.348m-15.782 10.747-0.33518-0.34 0.33518-2.013 2.0146-1.344 0.33697-1.006h1.0073l-0.33518 2.35-1.6795 0.672-1.0073 1.681h-0.33696" id="Kauai__HI" onmouseover="handleMouseOverCounty(&quot;Kauai&quot;,abbrevToStates[&quot;HI&quot;])" style="fill:#d0d0d0" />
  <path class="c15003" d="m349.66 568.82-1.3461 1.013v-0.337l-2.0146 0.67-1.6795-1.007-3.3572 0.337-1.3443 0.337-0.67036-1.683-1.0091-0.67-0.3334-1.006-1.0091-1.009v-1.007l-1.0073-0.669 3.3589-0.676 1.6795-2.346 1.0073-0.674 1.0055 0.334 1.6795 3.022h0.33518l0.33518 0.674-0.33518 0.67 0.33518 1.005 1.3443 1.011 0.33518-1.011h0.67214v1.011l0.67215 0.337 0.33517 1.343 1.0109 0.331" id="Honolulu__HI" onmouseover="handleMouseOverCounty(&quot;Honolulu&quot;,abbrevToStates[&quot;HI&quot;])" style="fill:#d0d0d0" />
  <path class="c15009" d="m364.76 571.51h0.33874l0.67215 0.333h0.33339l-0.33339-0.67 3.0184-0.67 1.3443 0.337-0.67214 1.344-2.0146 1.341h-1.0073l-4.0257-0.669-4.7014 0.333h-0.33874l1.0109-2.686h0.33518l4.7014 0.337 1.0073 0.333 0.33161 0.337m8.0586 2.35 1.0073 0.337 1.6795 2.687 3.3571-1.678 2.0146 0.335v0.335l2.6868 1.681 2.3498 0.671 0.33518 0.67v1.341l-1.3425 1.344-1.6795 0.672-3.3572 1.346h-2.3516l-0.67215-0.338-0.67035-4.028-1.0055-0.337-0.67215 0.669-2.0146-1.006-1.3425-1.344-0.33696-1.341 0.67214-1.344 0.33518-0.672h1.0073m-8.7272 3.024h2.348l1.3443 1.007 0.67036 1.007-0.33697 1.341-3.0184 1.011-0.33874-1.344-0.33161-1.008-1.3425-1.341v-0.34l1.0055-0.333m10.071 6.717 0.33517 0.334 0.33518 1.342-2.6868 0.672-1.0055-0.338 0.67036-1.002 2.3516-1.008" id="Maui__HI" onmouseover="handleMouseOverCounty(&quot;Maui&quot;,abbrevToStates[&quot;HI&quot;])" style="fill:#d0d0d0" />
  <path class="c15001" d="m397 619.87-0.67036 0.672-1.3443-1.007-3.3571-1.342-0.67571-1.01-0.33518-0.67 0.33518-5.374-2.3498-5.71-1.3443-1.341-1.0073-1.342 0.33696-1.011 2.0146-2.013 2.3498-3.02v-1.343l-1.6777-2.351-0.33696-1.343 0.33696-1.346 0.67036-0.335 2.0164 0.335 0.67036 1.007 3.0238 1.347 3.6959 0.67 4.0293 1.681 2.6868 1.678 1.3425 1.677 0.33518 2.689 1.6777-0.337 0.67214 1.004v1.346l1.6795 1.342 2.3498 1.006-0.67214 1.344-3.6923 3.357-3.022 1.683-2.6868 0.336-3.022 2.348-1.6777 1.005-2.3516 4.368" id="Hawaii__HI" onmouseover="handleMouseOverCounty(&quot;Hawaii&quot;,abbrevToStates[&quot;HI&quot;])" style="fill:#d0d0d0" />
  <path class="c15005" d="m364.43 571.18-1.0073-0.333 2.3498 0.333 0.33339 0.67h-0.33339l-0.67215-0.333h-0.33874l-0.33161-0.337" id="Kalawao__HI" onmouseover="handleMouseOverCounty(&quot;Kalawao&quot;,abbrevToStates[&quot;HI&quot;])" style="fill:#d0d0d0" />
  </g>
 </svg>