<svg xmlns="http://www.w3.org/2000/svg" xmlns:dc="http://purl.org/dc/elements/1.1/" xmlns:ns2="http://creativecommons.org/ns#" xmlns:rdf="http://www.w3.org/1999/02/22-rdf-syntax-ns#" height="351.8" id="svg2" preserveAspectRatio="none" version="1.0" width="555.3">
 <metadata id="metadata7">
  <rdf:RDF>
   <ns2:Work>
    <dc:format>image/svg+xml</dc:format>
    <dc:type rdf:resource="http://purl.org/dc/dcmitype/StillImage" />
    <dc:title />
    <ns2:license rdf:resource="http://creativecommons.org/publicdomain/zero/1.0/" />
    <dc:date>2013-01-30</dc:date>
    <dc:creator>
     <ns2:Agent>
      <dc:title>U.S. Census Bureau, Abe.suleiman, Lokal_Profil</dc:title>
     </ns2:Agent>
    </dc:creator>
    <dc:source>https://commons.wikimedia.org/wiki/File:Usa_counties_large.svg</dc:source>
   </ns2:Work>
   <ns2:License rdf:about="http://creativecommons.org/publicdomain/zero/1.0/">
    <ns2:permits rdf:resource="http://creativecommons.org/ns#Reproduction" />
    <ns2:permits rdf:resource="http://creativecommons.org/ns#Distribution" />
    <ns2:permits rdf:resource="http://creativecommons.org/ns#DerivativeWorks" />
   </ns2:License>
  </rdf:RDF>
 </metadata>
 <style id="style_css_sheet" type="text/css">
  /* * Below are Cascading Style Sheet (CSS) definitions in use in this file, * which allow easily changing how counties are displayed. * * To e.g. colour two counties red simply go to the CSS insertion point and add: * .c02185, c02188 {fill:red} * * */ 
  .counties {fill:#d0d0d0;fill-rule:nonzero;stroke:#000000;stroke-width:0.178287;} 
  .State_Lines {fill:none;stroke:#221e1f;stroke-width:0.89143497;} 
  .separator {fill:none;stroke:#a9a9a9;stroke-width:2.3177309;} 
  /*CSS insertion point*/
 </style>
 <g class="counties" id="county-group" style="fill:#d0d0d0;stroke-width:.17829;stroke:#000" transform="matrix(.56118 0 0 .56118 -.000329 -.037981)">
  <path class="c20043" d="m534.81 265.9h0.55447l9e-3 0.216 0.11232 0.162 2.1216 1.92 0.85935 0.553 0.43324 0.16 0.33696 0.128 0.0642 0.02h0.0802l0.66858-0.06 0.13015-0.05 0.1034-0.1 0.0143-0.02 0.60261-0.683 1.4709 1.849 0.14442 0.683 0.13728 0.634-0.36906 0.822-0.37083 0.06-1.2694 1.124-0.0713 0.08-0.6044 0.882-0.20859 0.298-0.87007-0.61232-4.0221-0.0317-0.0571-8.042" id="Doniphan__KS" onmouseover="handleMouseOverCounty(&quot;Doniphan&quot;,abbrevToStates[&quot;KS&quot;])" style="fill:#d0d0d0" />
  <path class="c20013" d="m526.97 265.93 7.8428-0.03 0.0571 8.042-3.9455 0.02-3.9544 0.02v-8.053" id="Brown__KS" onmouseover="handleMouseOverCounty(&quot;Brown&quot;,abbrevToStates[&quot;KS&quot;])" style="fill:#d0d0d0" />
  <path class="c20187" d="m414.27 314.89 9.2745 0.619-0.44215 8.044-0.56339-0.03-8.7824-0.556 0.3851-5.898 0.12836-2.177" id="Stanton__KS" onmouseover="handleMouseOverCounty(&quot;Stanton&quot;,abbrevToStates[&quot;KS&quot;])" style="fill:#d0d0d0" />
  <path class="c20129" d="m413.76 322.97 8.7824 0.556-0.50633 9.096-8.6059-0.474-0.25674-0.02 0.58657-9.162" id="Morton__KS" onmouseover="handleMouseOverCounty(&quot;Morton&quot;,abbrevToStates[&quot;KS&quot;])" style="fill:#d0d0d0" />
  <path class="c20189" d="m422.54 323.53 0.56339 0.03 7.891 0.457 0.39223 0.02-0.45641 9.025-8.8965-0.443 0.50633-9.096" id="Stevens__KS" onmouseover="handleMouseOverCounty(&quot;Stevens&quot;,abbrevToStates[&quot;KS&quot;])" style="fill:#d0d0d0" />
  <path class="c20067" d="m423.54 315.51 7.8821 0.433-0.43324 8.068-7.891-0.457 0.44215-8.044" id="Grant__KS" onmouseover="handleMouseOverCounty(&quot;Grant&quot;,abbrevToStates[&quot;KS&quot;])" style="fill:#d0d0d0" />
  <path class="c20081" d="m439.32 316.36-0.31378 6.051-0.0963 2.026-7.5219-0.394-0.39223-0.02 0.43324-8.068 7.891 0.41" id="Haskell__KS" onmouseover="handleMouseOverCounty(&quot;Haskell&quot;,abbrevToStates[&quot;KS&quot;])" style="fill:#d0d0d0" />
  <path class="c20175" d="m438.91 324.43-0.0874 8.984-5.682-0.241-2.209-0.112 0.45641-9.025 7.5219 0.394" id="Seward__KS" onmouseover="handleMouseOverCounty(&quot;Seward&quot;,abbrevToStates[&quot;KS&quot;])" style="fill:#d0d0d0" />
  <path class="c20119" d="m446.91 322.76 1.9701 0.105-0.15333 10.958-9.9074-0.408 0.0874-8.984 0.0963-2.026 7.907 0.355" id="Meade__KS" onmouseover="handleMouseOverCounty(&quot;Meade&quot;,abbrevToStates[&quot;KS&quot;])" style="fill:#d0d0d0" />
  <path class="c20069" d="m447.16 312.6-0.2496 10.164-7.907-0.355 0.31378-6.051-0.12836-2.161 0.20859-4.016 7.8678 0.41-0.10519 2.009" id="Gray__KS" onmouseover="handleMouseOverCounty(&quot;Gray&quot;,abbrevToStates[&quot;KS&quot;])" style="fill:#d0d0d0" />
  <path class="c20057" d="m447.16 312.6 11.829 0.512 0.0321 4.132-0.16937 6.185-9.9716-0.56-1.9701-0.105 0.2496-10.164" id="Ford__KS" onmouseover="handleMouseOverCounty(&quot;Ford&quot;,abbrevToStates[&quot;KS&quot;])" style="fill:#d0d0d0" />
  <path class="c20025" d="m458.85 323.43 0.15154 2.018-0.28882 8.838-8.4062-0.385-1.5814-0.07 0.15333-10.958 9.9716 0.56" id="Clark__KS" onmouseover="handleMouseOverCounty(&quot;Clark&quot;,abbrevToStates[&quot;KS&quot;])" style="fill:#d0d0d0" />
  <path class="c20033" d="m468.65 325.7-0.0874 8.92-8.2939-0.282-1.5511-0.06 0.28882-8.838 9.6436 0.257" id="Comanche__KS" onmouseover="handleMouseOverCounty(&quot;Comanche&quot;,abbrevToStates[&quot;KS&quot;])" style="fill:#d0d0d0" />
  <path class="c20097" d="m459.02 317.24 9.8432 0.385-0.16938 6.082-0.0481 1.993-9.6436-0.257-0.15154-2.018 0.16937-6.185" id="Kiowa__KS" onmouseover="handleMouseOverCounty(&quot;Kiowa&quot;,abbrevToStates[&quot;KS&quot;])" style="fill:#d0d0d0" />
  <path class="c20047" d="m459.15 309.07 3.9294 0.137-0.0642 2.016 5.8977 0.2 0.025 4.067-0.0713 2.137-9.8432-0.385-0.0321-4.132 0.15868-4.04" id="Edwards__KS" onmouseover="handleMouseOverCounty(&quot;Edwards&quot;,abbrevToStates[&quot;KS&quot;])" style="fill:#d0d0d0" />
  <path class="c20151" d="m478.69 315.79 0.0802 2.13-0.16045 6.058-9.9163-0.265 0.16938-6.082 0.0713-2.137 9.7559 0.296" id="Pratt__KS" onmouseover="handleMouseOverCounty(&quot;Pratt&quot;,abbrevToStates[&quot;KS&quot;])" style="fill:#d0d0d0" />
  <path class="c20007" d="m468.7 323.71 9.9163 0.265 3e-3 1.9775 2.029 0.0965-0.16937 8.945-3.6068-0.115-8.3082-0.256 0.0874-8.92 0.0481-1.993" id="Barber__KS" onmouseover="handleMouseOverCounty(&quot;Barber&quot;,abbrevToStates[&quot;KS&quot;])" style="fill:#d0d0d0" />
  <path class="c20077" d="m480.64 326.05 9.8432 0.162-0.0802 8.982-5.6499-0.105-4.2824-0.09 0.16937-8.945" id="Harper__KS" onmouseover="handleMouseOverCounty(&quot;Harper&quot;,abbrevToStates[&quot;KS&quot;])" style="fill:#d0d0d0" />
  <path class="c20095" d="m478.77 317.92 11.853 0.239-0.10519 6.019-0.0321 2.036-9.8432-0.162-2.029-0.0965-3e-3 -1.9775 0.16045-6.058" id="Kingman__KS" onmouseover="handleMouseOverCounty(&quot;Kingman&quot;,abbrevToStates[&quot;KS&quot;])" style="fill:#d0d0d0" />
  <path class="c20155" d="m488.77 307.93 3.9526 0.07-0.11232 6.044-0.0167 4.1235-1.9676-0.0125-11.853-0.239-0.0802-2.13 0.19968-8.068 9.8771 0.211" id="Reno__KS" onmouseover="handleMouseOverCounty(&quot;Reno&quot;,abbrevToStates[&quot;KS&quot;])" style="fill:#d0d0d0" />
  <path class="c20079" d="m498.64 308.1 3.87 0.15506 0.0256 1.8929-0.0303 4.049-9.9003-0.151 0.11232-6.044 5.9227 0.1" id="Harvey__KS" onmouseover="handleMouseOverCounty(&quot;Harvey&quot;,abbrevToStates[&quot;KS&quot;])" style="fill:#d0d0d0" />
  <path class="c20173" d="m492.61 314.04 9.9003 0.151-0.13728 10.134-11.853-0.155 0.10519-6.019 1.9676 0.0125 0.0167-4.1235" id="Sedgwick__KS" onmouseover="handleMouseOverCounty(&quot;Sedgwick&quot;,abbrevToStates[&quot;KS&quot;])" style="fill:#d0d0d0" />
  <path class="c20191" d="m490.52 324.17 11.853 0.155-0.0321 11.042-5.7373-0.07-6.1955-0.107 0.0802-8.982 0.0321-2.036" id="Sumner__KS" onmouseover="handleMouseOverCounty(&quot;Sumner&quot;,abbrevToStates[&quot;KS&quot;])" style="fill:#d0d0d0" />
  <path class="c20035" d="m502.37 324.33 11.362 0.08v4.026l-0.0571 7.03-4.0899-0.02-7.2474-0.07 0.0321-11.042" id="Cowley__KS" onmouseover="handleMouseOverCounty(&quot;Cowley&quot;,abbrevToStates[&quot;KS&quot;])" style="fill:#d0d0d0" />
  <path class="c20015" d="m508.15 310.25 5.7212 0.02-0.11232 11.106-0.025 3.03-11.362-0.08 0.13728-10.134 0.0303-4.049 5.6107 0.104" id="Butler__KS" onmouseover="handleMouseOverCounty(&quot;Butler&quot;,abbrevToStates[&quot;KS&quot;])" style="fill:#d0d0d0" />
  <path class="c20019" d="m513.73 328.44 10.175 0.105 5e-3 6.959h-0.66501l-9.5722-0.03 0.0571-7.03" id="Chautauqua__KS" onmouseover="handleMouseOverCounty(&quot;Chautauqua&quot;,abbrevToStates[&quot;KS&quot;])" style="fill:#d0d0d0" />
  <path class="c20049" d="m523.96 321.48v5.031l-0.0535 2.027-10.175-0.105v-4.026l0.025-3.03 10.203 0.103" id="Elk__KS" onmouseover="handleMouseOverCounty(&quot;Elk&quot;,abbrevToStates[&quot;KS&quot;])" style="fill:#d0d0d0" />
  <path class="c20073" d="m524 308.33-9e-3 3.036-0.025 7.087v3.027l-10.203-0.103 0.11232-11.106 2.9611 0.0176 0.0199-2.0086 7.144 0.05" id="Greenwood__KS" onmouseover="handleMouseOverCounty(&quot;Greenwood&quot;,abbrevToStates[&quot;KS&quot;])" style="fill:#d0d0d0" />
  <path class="c20125" d="m523.96 326.51 7.8999 0.04h0.082l0.0713 2.717-0.0553 4.741 5e-3 1.453-4.8209 0.03h-3.2306l-5e-3 -6.959 0.0535-2.027" id="Montgomery__KS" onmouseover="handleMouseOverCounty(&quot;Montgomery&quot;,abbrevToStates[&quot;KS&quot;])" style="fill:#d0d0d0" />
  <path class="c20205" d="m523.96 318.46 7.8589 0.02 0.041 8.083-7.8999-0.04v-8.058" id="Wilson__KS" onmouseover="handleMouseOverCounty(&quot;Wilson&quot;,abbrevToStates[&quot;KS&quot;])" style="fill:#d0d0d0" />
  <path class="c20207" d="m523.99 311.37 7.9159 0.02-0.082 7.08-7.8589-0.02 0.025-7.087" id="Woodson__KS" onmouseover="handleMouseOverCounty(&quot;Woodson&quot;,abbrevToStates[&quot;KS&quot;])" style="fill:#d0d0d0" />
  <path class="c20099" d="m531.94 326.55 7.8571-0.06 0.24069 1.02 0.11232 7.884-6.0974 0.06h-2.0913l-5e-3 -1.453 0.0553-4.741-0.0713-2.717" id="Labette__KS" onmouseover="handleMouseOverCounty(&quot;Labette&quot;,abbrevToStates[&quot;KS&quot;])" style="fill:#d0d0d0" />
  <path class="c20133" d="m539.72 318.42 0.0178 1.339 0.0624 6.734-7.8571 0.06h-0.082l-0.041-8.083 7.8999-0.05" id="Neosho__KS" onmouseover="handleMouseOverCounty(&quot;Neosho&quot;,abbrevToStates[&quot;KS&quot;])" style="fill:#d0d0d0" />
  <path class="c20001" d="m539.84 311.34-0.11945 7.081-7.8999 0.05 0.082-7.08 7.9373-0.05" id="Allen__KS" onmouseover="handleMouseOverCounty(&quot;Allen&quot;,abbrevToStates[&quot;KS&quot;])" style="fill:#d0d0d0" />
  <path class="c20021" d="m540.04 327.52 8.3082-0.06 0.10519 7.884-7.103 0.06h-1.1981l-0.11232-7.884" id="Cherokee__KS" onmouseover="handleMouseOverCounty(&quot;Cherokee&quot;,abbrevToStates[&quot;KS&quot;])" style="fill:#d0d0d0" />
  <path class="c20037" d="m548.23 319.69 0.11232 7.158 7e-3 0.603-8.3082 0.06-0.24069-1.02-0.0624-6.734 8.4918-0.07" id="Crawford__KS" onmouseover="handleMouseOverCounty(&quot;Crawford&quot;,abbrevToStates[&quot;KS&quot;])" style="fill:#d0d0d0" />
  <path class="c20011" d="m539.84 311.34 8.3349-0.08 0.0553 8.429-8.4918 0.07-0.0178-1.339 0.11945-7.081" id="Bourbon__KS" onmouseover="handleMouseOverCounty(&quot;Bourbon&quot;,abbrevToStates[&quot;KS&quot;])" style="fill:#d0d0d0" />
  <path class="c20075" d="m414.99 302.77 8.5346 0.508 0.44928 0.02-0.37797 6.72 0.0642 3.382-0.11945 2.113-9.2745-0.619 0.72385-12.125" id="Hamilton__KS" onmouseover="handleMouseOverCounty(&quot;Hamilton&quot;,abbrevToStates[&quot;KS&quot;])" style="fill:#d0d0d0" />
  <path class="c20071" d="m415.63 292.71 8.4936 0.472-0.59369 10.095-8.5346-0.508 0.50633-8.157 0.12837-1.902" id="Greeley__KS" onmouseover="handleMouseOverCounty(&quot;Greeley&quot;,abbrevToStates[&quot;KS&quot;])" style="fill:#d0d0d0" />
  <path class="c20199" d="m426.29 283.2-0.69176 10.052-1.478-0.07-8.4936-0.472 0.49029-8.084 0.11232-1.995 10.061 0.571" id="Wallace__KS" onmouseover="handleMouseOverCounty(&quot;Wallace&quot;,abbrevToStates[&quot;KS&quot;])" style="fill:#d0d0d0" />
  <path class="c20181" d="m416.83 272.56 11.177 0.677 0.43324 0.02-0.61688 10.022-1.5279-0.08-10.061-0.571 0.59548-10.069" id="Sherman__KS" onmouseover="handleMouseOverCounty(&quot;Sherman&quot;,abbrevToStates[&quot;KS&quot;])" style="fill:#d0d0d0" />
  <path class="c20023" d="m417.44 262.5 11.186 0.694-0.61866 10.044-11.177-0.677 7e-3 -0.134 0.60261-9.927" id="Cheyenne__KS" onmouseover="handleMouseOverCounty(&quot;Cheyenne&quot;,abbrevToStates[&quot;KS&quot;])" style="fill:#d0d0d0" />
  <path class="c20185" d="m471.06 305.45 7.7555 0.225 0.0713 2.041-0.19968 8.068-9.7559-0.296-0.025-4.067 1.954 0.06 0.19968-6.035" id="Stafford__KS" onmouseover="handleMouseOverCounty(&quot;Stafford&quot;,abbrevToStates[&quot;KS&quot;])" style="fill:#d0d0d0" />
  <path class="c20093" d="m423.98 303.3 7.4649 0.395 0.39401 0.02-0.18542 3.866-0.36192 6.216 0.13728 2.154-7.8821-0.433 0.11945-2.113-0.0642-3.382 0.37797-6.72" id="Kearny__KS" onmouseover="handleMouseOverCounty(&quot;Kearny&quot;,abbrevToStates[&quot;KS&quot;])" style="fill:#d0d0d0" />
  <path class="c20055" d="m439.33 304.1 7.8821 0.421 0.30487 0.02-0.25495 6.051-7.8678-0.41-0.20859 4.016 0.12836 2.161-7.891-0.41-0.13728-2.154 0.36192-6.216 0.18542-3.866 7.497 0.391" id="Finney__KS" onmouseover="handleMouseOverCounty(&quot;Finney&quot;,abbrevToStates[&quot;KS&quot;])" style="fill:#d0d0d0" />
  <path class="c20083" d="m459.04 305.01 0.11233 4.06-0.15868 4.04-11.829-0.512 0.10519-2.009 0.25495-6.051 11.516 0.472" id="Hodgeman__KS" onmouseover="handleMouseOverCounty(&quot;Hodgeman&quot;,abbrevToStates[&quot;KS&quot;])" style="fill:#d0d0d0" />
  <path class="c20145" d="m459.1 302.99 9.8824 0.372-0.0718 1.9961 2.1524 0.0989-0.19968 6.035-1.954-0.06-5.8977-0.2 0.0642-2.016-3.9294-0.137-0.11233-4.06 0.066-2.025" id="Pawnee__KS" onmouseover="handleMouseOverCounty(&quot;Pawnee&quot;,abbrevToStates[&quot;KS&quot;])" style="fill:#d0d0d0" />
  <path class="c20031" d="m532.05 302.21v1.021l0.0339 3.036h-0.16937l-0.0161 5.128-7.9159-0.02 9e-3 -3.036 0.15155-6.1 7.907-0.03" id="Coffey__KS" onmouseover="handleMouseOverCounty(&quot;Coffey&quot;,abbrevToStates[&quot;KS&quot;])" style="fill:#d0d0d0" />
  <path class="c20003" d="m532.05 303.23 7.9248-0.05 0.0392 3.036-0.17828 3.102v2.026l-7.9373 0.05 0.0161-5.128h0.16937l-0.0339-3.036" id="Anderson__KS" onmouseover="handleMouseOverCounty(&quot;Anderson&quot;,abbrevToStates[&quot;KS&quot;])" style="fill:#d0d0d0" />
  <path class="c20107" d="m548.07 303.11 0.0963 7.614 9e-3 0.541-8.3349 0.08v-2.026l0.17828-3.102-0.0392-3.036 8.0907-0.07" id="Linn__KS" onmouseover="handleMouseOverCounty(&quot;Linn&quot;,abbrevToStates[&quot;KS&quot;])" style="fill:#d0d0d0" />
  <path class="c20121" d="m548.02 295.01 0.025 6.044 0.0232 2.058-8.0907 0.07 0.0784-8.083 7.9641-0.09" id="Miami__KS" onmouseover="handleMouseOverCounty(&quot;Miami&quot;,abbrevToStates[&quot;KS&quot;])" style="fill:#d0d0d0" />
  <path class="c20059" d="m532.14 295.16 7.9142-0.06-0.0784 8.083-7.9248 0.05v-1.021l0.0891-7.046" id="Franklin__KS" onmouseover="handleMouseOverCounty(&quot;Franklin&quot;,abbrevToStates[&quot;KS&quot;])" style="fill:#d0d0d0" />
  <path class="c20139" d="m532.13 292.12 9e-3 3.045-0.0891 7.046-7.907 0.03 0.0731-7.056-7e-3 -3.036 7.9213-0.03" id="Osage__KS" onmouseover="handleMouseOverCounty(&quot;Osage&quot;,abbrevToStates[&quot;KS&quot;])" style="fill:#d0d0d0" />
  <path class="c20111" d="m516.98 295.15 7.2402 0.03-0.0731 7.056-0.15155 6.1-7.144-0.05 0.0874-8.086 0.041-5.045" id="Lyon__KS" onmouseover="handleMouseOverCounty(&quot;Lyon&quot;,abbrevToStates[&quot;KS&quot;])" style="fill:#d0d0d0" />
  <path class="c20017" d="m508.62 300.13 8.3171 0.07-0.0874 8.086-0.0199 2.0086-2.9611-0.0176-5.7212-0.02 0.0321-3.808 0.0802-2.291 0.32804 0.01 0.0321-4.036" id="Chase__KS" onmouseover="handleMouseOverCounty(&quot;Chase&quot;,abbrevToStates[&quot;KS&quot;])" style="fill:#d0d0d0" />
  <path class="c20127" d="m514.34 292.12 0.0789 1.0202 1.8199 0.0626 0.0209 1.9487 0.71725 5e-3 -0.041 5.045-8.3171-0.07-2.0636 0.0378 0.10421-2.0698 0.27589-5.1137 0.51234 3e-3 -0.0162-0.92334 6.9086 0.06" id="Morris__KS" onmouseover="handleMouseOverCounty(&quot;Morris&quot;,abbrevToStates[&quot;KS&quot;])" style="fill:#d0d0d0" />
  <path class="c20115" d="m506.66 298.09-0.10421 2.0698 2.0636-0.0378-0.0321 4.036-0.32804-0.01-0.0802 2.291-0.0321 3.808-5.6107-0.104-0.0256-1.8929-3.87-0.15506 0.14442-10.102 7.8749 0.1" id="Marion__KS" onmouseover="handleMouseOverCounty(&quot;Marion&quot;,abbrevToStates[&quot;KS&quot;])" style="fill:#d0d0d0" />
  <path class="c20113" d="m498.79 298-0.14442 10.102-5.9227-0.1-3.9526-0.07 0.15867-10.109 9.8611 0.176" id="McPherson__KS" onmouseover="handleMouseOverCounty(&quot;McPherson&quot;,abbrevToStates[&quot;KS&quot;])" style="fill:#d0d0d0" />
  <path class="c20159" d="m478.96 299.63 9.9324 0.208-0.12836 8.093-9.8771-0.211-0.0713-2.041 0.14441-6.049" id="Rice__KS" onmouseover="handleMouseOverCounty(&quot;Rice&quot;,abbrevToStates[&quot;KS&quot;])" style="fill:#d0d0d0" />
  <path class="c20169" d="m498.91 289.92-0.12123 8.076-9.8611-0.176 0.0499-6.06 0.0392-2.017 9.8932 0.177" id="Saline__KS" onmouseover="handleMouseOverCounty(&quot;Saline&quot;,abbrevToStates[&quot;KS&quot;])" style="fill:#d0d0d0" />
  <path class="c20053" d="m479.1 291.54 9.8771 0.225-0.0499 6.06-0.0303 2.016-9.9324-0.208 9e-3 -4.067 0.12658-4.026" id="Ellsworth__KS" onmouseover="handleMouseOverCounty(&quot;Ellsworth&quot;,abbrevToStates[&quot;KS&quot;])" style="fill:#d0d0d0" />
  <path class="c20009" d="m478.97 295.56-9e-3 4.067-0.14441 6.049-7.7555-0.225-2.1524-0.0989 0.0718-1.9961 0.2496-8.069 9.7398 0.273" id="Barton__KS" onmouseover="handleMouseOverCounty(&quot;Barton&quot;,abbrevToStates[&quot;KS&quot;])" style="fill:#d0d0d0" />
  <path class="c20165" d="m459.4 294.95 9.6578 0.328h0.17829l-0.2496 8.069-9.8824-0.372 0.29596-8.034" id="Rush__KS" onmouseover="handleMouseOverCounty(&quot;Rush&quot;,abbrevToStates[&quot;KS&quot;])" style="fill:#d0d0d0" />
  <path class="c20135" d="m447.61 294.43 1.6634 0.09 9.8842 0.426h0.24069l-0.29596 8.034-0.066 2.025-11.516-0.472-0.30487-0.02 0.39401-10.093" id="Ness__KS" onmouseover="handleMouseOverCounty(&quot;Ness&quot;,abbrevToStates[&quot;KS&quot;])" style="fill:#d0d0d0" />
  <path class="c20101" d="m439.77 294.01 7.8428 0.419-0.39401 10.093-7.8821-0.421 0.43324-10.091" id="Lane__KS" onmouseover="handleMouseOverCounty(&quot;Lane&quot;,abbrevToStates[&quot;KS&quot;])" style="fill:#d0d0d0" />
  <path class="c20171" d="m431.93 293.59 5.5126 0.304 2.3213 0.113-0.43324 10.091-7.497-0.391-0.39401-0.02 0.49029-10.1" id="Scott__KS" onmouseover="handleMouseOverCounty(&quot;Scott&quot;,abbrevToStates[&quot;KS&quot;])" style="fill:#d0d0d0" />
  <path class="c20203" d="m425.6 293.25 6.3328 0.339-0.49029 10.1-7.4649-0.395-0.44928-0.02 0.59369-10.095 1.478 0.07" id="Wichita__KS" onmouseover="handleMouseOverCounty(&quot;Wichita&quot;,abbrevToStates[&quot;KS&quot;])" style="fill:#d0d0d0" />
  <path class="c20109" d="m427.82 283.28 2.6351 0.144 2.6904 0.193 4.9261 0.257-0.62579 10.019-5.5126-0.304-6.3328-0.339 0.69176-10.052 1.5279 0.08" id="Logan__KS" onmouseover="handleMouseOverCounty(&quot;Logan&quot;,abbrevToStates[&quot;KS&quot;])" style="fill:#d0d0d0" />
  <path class="c20063" d="m439.68 283.96 9.8504 0.49h0.29061l-0.54734 10.061-1.6634-0.09-7.8428-0.419-2.3213-0.113 0.62579-10.019 1.6082 0.08" id="Gove__KS" onmouseover="handleMouseOverCounty(&quot;Gove&quot;,abbrevToStates[&quot;KS&quot;])" style="fill:#d0d0d0" />
  <path class="c20195" d="m449.82 284.46 9.6025 0.387h0.24068l-0.50633 10.093-9.8842-0.426 0.54734-10.061" id="Trego__KS" onmouseover="handleMouseOverCounty(&quot;Trego&quot;,abbrevToStates[&quot;KS&quot;])" style="fill:#d0d0d0" />
  <path class="c20051" d="m459.66 284.85 9.6257 0.321h0.18542l-0.41898 10.1-9.6578-0.328h-0.24069l0.50633-10.093" id="Ellis__KS" onmouseover="handleMouseOverCounty(&quot;Ellis&quot;,abbrevToStates[&quot;KS&quot;])" style="fill:#d0d0d0" />
  <path class="c20167" d="m469.47 285.18 9.6899 0.289-0.0642 6.067-0.12658 4.026-9.7398-0.273h-0.17829l0.41898-10.1" id="Russell__KS" onmouseover="handleMouseOverCounty(&quot;Russell&quot;,abbrevToStates[&quot;KS&quot;])" style="fill:#d0d0d0" />
  <path class="c20105" d="m489.12 283.69-0.10519 6.051-0.0392 2.017-9.8771-0.225 0.0642-6.067 0.0571-2.018 9.9003 0.242" id="Lincoln__KS" onmouseover="handleMouseOverCounty(&quot;Lincoln&quot;,abbrevToStates[&quot;KS&quot;])" style="fill:#d0d0d0" />
  <path class="c20143" d="m489.17 281.68 9.8914 0.176-0.0874 4.035-0.0642 4.033-9.8932-0.177 0.10519-6.051 0.0481-2.016" id="Ottawa__KS" onmouseover="handleMouseOverCounty(&quot;Ottawa&quot;,abbrevToStates[&quot;KS&quot;])" style="fill:#d0d0d0" />
  <path class="c20041" d="m506.2 285.97 1.2373 6.092 0.0163 0.92334-0.51234-3e-3 -0.27589 5.1137-7.8749-0.1 0.12123-8.076 0.0642-4.033 7.2242 0.08" id="Dickinson__KS" onmouseover="handleMouseOverCounty(&quot;Dickinson&quot;,abbrevToStates[&quot;KS&quot;])" style="fill:#d0d0d0" />
  <path class="c20061" d="m506.2 285.97 0.0553-2.041 1.9683 0.05-0.0481 3.033 4.8048 0.39 1.3978 0.02v0.678l-0.0321 4.026-6.9086-0.06-1.2373-6.092" id="Geary__KS" onmouseover="handleMouseOverCounty(&quot;Geary&quot;,abbrevToStates[&quot;KS&quot;])" style="fill:#d0d0d0" />
  <path class="c20197" d="m522.56 286.19 0.0324 0.72729 1.6103 0.026 6e-3 5.1947 7e-3 3.036-7.2402-0.03-0.71725-5e-3 -0.0209-1.9487-1.8199-0.0626-0.0789-1.0202 0.0321-4.026 2.0336 0.0173-0.0315-3.0003 0.11232 0.105 0.44928 0.282 0.18542 0.05 0.93244-0.955 1.1981-0.289 2.1127 0.169 0.41898 0.17 0.25673 0.328 0.49742 1.046 0.0232 0.184" id="Wabaunsee__KS" onmouseover="handleMouseOverCounty(&quot;Wabaunsee&quot;,abbrevToStates[&quot;KS&quot;])" style="fill:#d0d0d0" />
  <path class="c20177" d="m522.63 284.1h7.891l-0.0268 1.7523-0.0369 2.1252 1.6629-0.17454 0.016 4.317-7.9213 0.03-6e-3 -5.1947-1.6103-0.026-0.0324-0.72729 0.0642-2.09" id="Shawnee__KS" onmouseover="handleMouseOverCounty(&quot;Shawnee&quot;,abbrevToStates[&quot;KS&quot;])" style="fill:#d0d0d0" />
  <path class="c20045" d="m537.67 288.04 2.3373 1.414 0.0481 5.641-7.9142 0.06-9e-3 -3.045-0.016-4.317 0.77376-0.28 0.36014-0.04 0.24782 0.04 0.35479 0.152 0.22465 0.257 0.56338 0.338 0.31379 0.08 0.25495-0.02 2.4604-0.289" id="Douglas__KS" onmouseover="handleMouseOverCounty(&quot;Douglas&quot;,abbrevToStates[&quot;KS&quot;])" style="fill:#d0d0d0" />
  <path class="c20091" d="m542.62 289.22 0.47424-1.462 0.11232-0.1 0.23356-0.08h0.27277l1.519 0.386 2.7242-0.04 0.0571 4.565 7e-3 2.522-7.9641 0.09-0.0481-5.641 2.6119-0.234" id="Johnson__KS" onmouseover="handleMouseOverCounty(&quot;Johnson&quot;,abbrevToStates[&quot;KS&quot;])" style="fill:#d0d0d0" />
  <path class="c20209" d="m548.01 285.23-0.082 1.079 0.025 1.606-2.7242 0.04-1.519-0.386h-0.27277l-0.23356 0.08-0.11232 0.1-0.47424 1.462-0.025-3.19 0.12124-1.704h1.897l3.3999 0.907" id="Wyandotte__KS" onmouseover="handleMouseOverCounty(&quot;Wyandotte&quot;,abbrevToStates[&quot;KS&quot;])" style="fill:#d0d0d0" />
  <path class="c20103" d="m537.73 279.35 3.7191-0.04 3.1664 5.017h-1.897l-0.12124 1.704 0.025 3.19-2.6119 0.234-2.3373-1.414-0.0321-1.961 0.11945-2.331-0.0303-4.403" id="Leavenworth__KS" onmouseover="handleMouseOverCounty(&quot;Leavenworth&quot;,abbrevToStates[&quot;KS&quot;])" style="fill:#d0d0d0" />
  <path class="c20087" d="m530.83 279.39 6.8961-0.04 0.0303 4.403-0.11945 2.331 0.0321 1.961-2.4604 0.289-0.25495 0.02-0.31379-0.08-0.56338-0.338-0.22465-0.257-0.35479-0.152-0.24782-0.04-0.36014 0.04-0.77376 0.28-1.6629 0.17454 0.0369-2.1252 0.0268-1.7523-0.0672-2.7438 0.38094-1.9642" id="Jefferson__KS" onmouseover="handleMouseOverCounty(&quot;Jefferson&quot;,abbrevToStates[&quot;KS&quot;])" style="fill:#d0d0d0" />
  <path class="c20005" d="m539.06 276.69 2.3855 2.624-3.7191 0.04-6.8961 0.04 0.0891-5.419 3.9455-0.02 4.0221 0.0317 0.87007 0.61232-0.6971 2.097" id="Atchison__KS" onmouseover="handleMouseOverCounty(&quot;Atchison&quot;,abbrevToStates[&quot;KS&quot;])" style="fill:#d0d0d0" />
  <path class="c20085" d="m530.83 279.39-0.38094 1.9642 0.0671 2.7438h-7.891v-8.099l2.4229 0.0476 1.8767 0.0252 0.0399-2.0899 3.9544-0.02-0.0891 5.419" id="Jackson__KS" onmouseover="handleMouseOverCounty(&quot;Jackson&quot;,abbrevToStates[&quot;KS&quot;])" style="fill:#d0d0d0" />
  <path class="c20149" d="m522.63 284.1-0.0642 2.09-0.0232-0.184-0.49742-1.046-0.25673-0.328-0.41898-0.17-2.1127-0.169-1.1981 0.289-0.93244 0.955-0.18542-0.05-0.44928-0.282-0.11232-0.105-1.2694-0.378-1.1731-0.515-1.6634-1.541-0.87539-1.367-0.86826-1.597 7e-3 -0.926 0.21752-0.362 2.266-2.458 6.035 0.03h3.5746v8.099" id="Pottawatomie__KS" onmouseover="handleMouseOverCounty(&quot;Pottawatomie&quot;,abbrevToStates[&quot;KS&quot;])" style="fill:#d0d0d0" />
  <path class="c20161" d="m506.25 283.93 0.12837-8.02 2.6832 0.02 3.9544 0.03-2.266 2.458-0.21752 0.362-7e-3 0.926 0.86826 1.597 0.87539 1.367 1.6634 1.541 1.1731 0.515 1.2694 0.378 0.0315 3.0003-2.0336-0.0173v-0.678l-1.3978-0.02-4.8048-0.39 0.0481-3.033-1.9683-0.05" id="Riley__KS" onmouseover="handleMouseOverCounty(&quot;Riley&quot;,abbrevToStates[&quot;KS&quot;])" style="fill:#d0d0d0" />
  <path class="c20027" d="m499.06 281.85 0.10519-6.044 7.2153 0.1-0.12837 8.02-0.0553 2.041-7.2242-0.08 0.0874-4.035" id="Clay__KS" onmouseover="handleMouseOverCounty(&quot;Clay&quot;,abbrevToStates[&quot;KS&quot;])" style="fill:#d0d0d0" />
  <path class="c20029" d="m489.25 275.63 0.0481-2.019 9.8914 0.177-0.0232 2.016-0.10519 6.044-9.8914-0.176 0.0802-6.042" id="Cloud__KS" onmouseover="handleMouseOverCounty(&quot;Cloud&quot;,abbrevToStates[&quot;KS&quot;])" style="fill:#d0d0d0" />
  <path class="c20123" d="m489.25 275.63-0.0802 6.042-0.0481 2.016-9.9003-0.242 0.25851-8.057 9.7701 0.241" id="Mitchell__KS" onmouseover="handleMouseOverCounty(&quot;Mitchell&quot;,abbrevToStates[&quot;KS&quot;])" style="fill:#d0d0d0" />
  <path class="c20141" d="m479.22 283.45-0.0571 2.018-9.6899-0.289h-0.18542l0.10519-3.366 0.13728-2.676 0.14441-4.024 9.4813 0.28h0.3227l-0.25851 8.057" id="Osborne__KS" onmouseover="handleMouseOverCounty(&quot;Osborne&quot;,abbrevToStates[&quot;KS&quot;])" style="fill:#d0d0d0" />
  <path class="c20163" d="m459.86 274.77 9.4421 0.315 0.37797 0.02-0.14441 4.024-0.13728 2.676-0.10519 3.366-9.6257-0.321h-0.24068l0.43323-10.071" id="Rooks__KS" onmouseover="handleMouseOverCounty(&quot;Rooks&quot;,abbrevToStates[&quot;KS&quot;])" style="fill:#d0d0d0" />
  <path class="c20065" d="m449.53 284.45 0.49029-10.077 9.385 0.38 0.45106 0.02-0.43323 10.071-9.6025-0.387h-0.29061" id="Graham__KS" onmouseover="handleMouseOverCounty(&quot;Graham&quot;,abbrevToStates[&quot;KS&quot;])" style="fill:#d0d0d0" />
  <path class="c20179" d="m440.19 273.89 9.4991 0.478h0.32805l-0.49029 10.077-9.8504-0.49 0.51346-10.072" id="Sheridan__KS" onmouseover="handleMouseOverCounty(&quot;Sheridan&quot;,abbrevToStates[&quot;KS&quot;])" style="fill:#d0d0d0" />
  <path class="c20193" d="m427.82 283.28 0.61688-10.022 11.394 0.61 0.36192 0.01-0.51346 10.072-1.6082-0.08-4.9261-0.257-2.6904-0.193-2.6351-0.144" id="Thomas__KS" onmouseover="handleMouseOverCounty(&quot;Thomas&quot;,abbrevToStates[&quot;KS&quot;])" style="fill:#d0d0d0" />
  <path class="c20153" d="m428.62 263.2 1.519 0.08 9.8824 0.529 0.34766 0.03-0.54021 10.043-11.394-0.61-0.43324-0.02 0.61866-10.044" id="Rawlins__KS" onmouseover="handleMouseOverCounty(&quot;Rawlins&quot;,abbrevToStates[&quot;KS&quot;])" style="fill:#d0d0d0" />
  <path class="c20039" d="m440.37 263.83 9.5294 0.457 0.27278 0.02-0.48138 10.06-9.4991-0.478-0.36192-0.01 0.54021-10.043" id="Decatur__KS" onmouseover="handleMouseOverCounty(&quot;Decatur&quot;,abbrevToStates[&quot;KS&quot;])" style="fill:#d0d0d0" />
  <path class="c20147" d="m467.64 264.97 1.9594 0.06-0.30487 10.06-9.4421-0.315-0.45106-0.02 0.41897-10.062 7.8197 0.281" id="Phillips__KS" onmouseover="handleMouseOverCounty(&quot;Phillips&quot;,abbrevToStates[&quot;KS&quot;])" style="fill:#d0d0d0" />
  <path class="c20137" d="m459.78 264.69h0.041l-0.41897 10.062-9.385-0.38h-0.32805l0.48138-10.06 9.6097 0.385" id="Norton__KS" onmouseover="handleMouseOverCounty(&quot;Norton&quot;,abbrevToStates[&quot;KS&quot;])" style="fill:#d0d0d0" />
  <path class="c20183" d="m469.6 265.03 5.9548 0.185 3.8813 0.105-0.2817 10.068-9.4813-0.28-0.37797-0.02 0.30487-10.06" id="Smith__KS" onmouseover="handleMouseOverCounty(&quot;Smith&quot;,abbrevToStates[&quot;KS&quot;])" style="fill:#d0d0d0" />
  <path class="c20089" d="m483.47 265.41 5.9869 0.144-0.16046 8.06-0.0481 2.019-9.7701-0.241h-0.3227l0.2817-10.068 4.0328 0.09" id="Jewell__KS" onmouseover="handleMouseOverCounty(&quot;Jewell&quot;,abbrevToStates[&quot;KS&quot;])" style="fill:#d0d0d0" />
  <path class="c20157" d="m491.39 265.6 7.9142 0.127-0.11232 8.067-9.8914-0.177 0.16046-8.06 1.9291 0.04" id="Republic__KS" onmouseover="handleMouseOverCounty(&quot;Republic&quot;,abbrevToStates[&quot;KS&quot;])" style="fill:#d0d0d0" />
  <path class="c20201" d="m499.3 265.73 7.932 0.105 1.9362 0.02-0.10519 10.078-2.6832-0.02-7.2153-0.1 0.0232-2.016 0.11232-8.067" id="Washington__KS" onmouseover="handleMouseOverCounty(&quot;Washington&quot;,abbrevToStates[&quot;KS&quot;])" style="fill:#d0d0d0" />
  <path class="c20117" d="m515.15 265.9 3.9277 0.02-0.0232 10.07-6.035-0.03-3.9544-0.03 0.10519-10.078 5.9797 0.05" id="Marshall__KS" onmouseover="handleMouseOverCounty(&quot;Marshall&quot;,abbrevToStates[&quot;KS&quot;])" style="fill:#d0d0d0" />
  <path class="c20131" d="m523.07 265.93h3.8974v8.053l-0.0399 2.0899-1.8767-0.0252-2.4229-0.0476h-3.5746l0.0232-10.07h3.9936" id="Nemaha__KS" onmouseover="handleMouseOverCounty(&quot;Nemaha&quot;,abbrevToStates[&quot;KS&quot;])" style="fill:#d0d0d0" />
  </g>
 </svg>