<svg xmlns="http://www.w3.org/2000/svg" xmlns:dc="http://purl.org/dc/elements/1.1/" xmlns:ns2="http://creativecommons.org/ns#" xmlns:rdf="http://www.w3.org/1999/02/22-rdf-syntax-ns#" height="351.8" id="svg2" preserveAspectRatio="none" version="1.0" width="555.3">
 <metadata id="metadata7">
  <rdf:RDF>
   <ns2:Work>
    <dc:format>image/svg+xml</dc:format>
    <dc:type rdf:resource="http://purl.org/dc/dcmitype/StillImage" />
    <dc:title />
    <ns2:license rdf:resource="http://creativecommons.org/publicdomain/zero/1.0/" />
    <dc:date>2013-01-30</dc:date>
    <dc:creator>
     <ns2:Agent>
      <dc:title>U.S. Census Bureau, Abe.suleiman, Lokal_Profil</dc:title>
     </ns2:Agent>
    </dc:creator>
    <dc:source>https://commons.wikimedia.org/wiki/File:Usa_counties_large.svg</dc:source>
   </ns2:Work>
   <ns2:License rdf:about="http://creativecommons.org/publicdomain/zero/1.0/">
    <ns2:permits rdf:resource="http://creativecommons.org/ns#Reproduction" />
    <ns2:permits rdf:resource="http://creativecommons.org/ns#Distribution" />
    <ns2:permits rdf:resource="http://creativecommons.org/ns#DerivativeWorks" />
   </ns2:License>
  </rdf:RDF>
 </metadata>
 <style id="style_css_sheet" type="text/css">
  /* * Below are Cascading Style Sheet (CSS) definitions in use in this file, * which allow easily changing how counties are displayed. * * To e.g. colour two counties red simply go to the CSS insertion point and add: * .c02185, c02188 {fill:red} * * */ 
  .counties {fill:#d0d0d0;fill-rule:nonzero;stroke:#000000;stroke-width:0.178287;} 
  .State_Lines {fill:none;stroke:#221e1f;stroke-width:0.89143497;} 
  .separator {fill:none;stroke:#a9a9a9;stroke-width:2.3177309;} 
  /*CSS insertion point*/
 </style>
 <g class="counties" id="county-group" style="fill:#d0d0d0;stroke-width:.17829;stroke:#000" transform="matrix(.56118 0 0 .56118 -.000329 -.037981)">
  <path class="c24001" d="m831.02 243.77 0.65253-0.121 0.53665 1.945-1.8399 3.15-3.35 0.184-2.1216-0.844-2.8847 3.971-1.897-0.426 1.3942-6.108 2.118-0.387 7.3918-1.364" id="Allegany__MD" onmouseover="handleMouseOverCounty(&quot;Allegany&quot;,abbrevToStates[&quot;MD&quot;])" style="fill:#d0d0d0" />
  <path class="c24023" d="m821.51 245.52-1.3942 6.108-3.2698 3.945-0.92423 1.7074-1.4158 1.5436-0.5375 0.20301-1.8881-11.789 1.4637-0.264 7.9659-1.454" id="Garrett__MD" onmouseover="handleMouseOverCounty(&quot;Garrett&quot;,abbrevToStates[&quot;MD&quot;])" style="fill:#d0d0d0" />
  <path class="c24037" d="m871.7 268.88 0.8433 2.2 1.4339 1.4022-0.15665 0.50292 0.65402 1.7082-0.80261-0.26266-0.83763-0.79593-1.2306-0.50672-0.14218 0.65955-1.2268-0.60971-1.2245-1.1429-1.5875-0.34832-1.3292 0.28336-0.24946 0.21953-0.84591-0.39455-0.70424-0.949-0.91818-1.597 7e-3 -0.428 0.95561-2.931 0.15511-0.138 0.61688-0.09 0.32983-0.03 0.7078 0.1 2.4824 1.8073 1.2076 0.26105 0.56191 1.2589 1.2999-0.18224" id="St._Mary_s__MD" onmouseover="handleMouseOverCounty(&quot;St._Mary_s&quot;,abbrevToStates[&quot;MD&quot;])" style="fill:#d0d0d0" />
  <path class="c24017" d="m858.01 262.51 1.0626 1.911 0.27991-0.603 0.0464-0.178 0.082-0.103 0.23177-0.159 0.56517-0.266 1.831-0.315 2.1769 0.508 0.0695 0.128 0.4368 1.222 0.89143 0.265h0.27278l0.19434 0.819-0.7078-0.1-0.32983 0.03-0.61688 0.09-0.15511 0.138-0.95561 2.931-7e-3 0.428 0.91818 1.597 0.0927 0.587v0.297l-0.0392 0.179-1.7479-0.80329-0.18513-0.3654-0.90675-0.53621-1.1336-2.048-0.75511 0.52499-0.47403 0.65856-0.48564 0.0877-0.26735 0.47303-0.93879 0.90663-0.18542-0.04-0.67392-0.328-0.38689-0.667-0.48137-1.494 0.0463-0.733 0.27457-0.987 0.72384-1.304 0.77911-0.964-0.87291-0.80824 0.57715-0.0254 0.23019-0.63032 0.52377-0.31006" id="Charles__MD" onmouseover="handleMouseOverCounty(&quot;Charles&quot;,abbrevToStates[&quot;MD&quot;])" style="fill:#d0d0d0" />
  <path class="c24047" d="m889.68 261.83 5.1008-1.115 0.0892 0.844 7e-3 0.602-0.016 0.822-0.0713 0.747-0.47219 5.272-0.0464 0.323-0.0571 0.223-0.0998 0.369-0.0588 0.265-0.32504 0.84146-0.69324 0.23687 0.86508-1.6728 0.13892-0.57214 0.0884-1.0931 0.32304-2.7908-0.21511 0.97888-0.55549 0.4364-0.12278-0.74071-0.56225 0.41383-0.5035 2.2928-0.16014 1.0415-0.48421 0.13751 0.0258 0.67132-0.32359-0.0975 0.0199 1.4706-4.5744 1.556-1.0798-1.4485 2.0746-1.0335-0.56338-2.059-1.6367-1.951 4.2967-1.214 0.53842-1.189 0.0892-0.54-0.38688-1.083-0.64897-0.944" id="Worcester__MD" onmouseover="handleMouseOverCounty(&quot;Worcester&quot;,abbrevToStates[&quot;MD&quot;])" style="fill:#d0d0d0" />
  <path class="c24045" d="m882.85 260.75 0.24068 0.867 0.19255 0.657 0.20682 0.726 0.54021-0.09 1.2284-0.209h0.0642l1.5671-0.3 0.36727-0.07 0.895-0.167 0.066-0.01 0.24425-0.05 0.28348-0.05 0.6757-0.153 0.25852-0.06 0.64897 0.944 0.38688 1.083-0.0892 0.54-0.53842 1.189-4.2967 1.214-1.068-0.45541-0.49247 0.93443-1.2424 0.0107-1.4084 1.3803-1.0465-0.362 0.0339-1.725 0.54556-3.568 0.11232-0.21 0.37084-0.209 0.41541-0.378 0.83795-1.469" id="Wicomico__MD" onmouseover="handleMouseOverCounty(&quot;Wicomico&quot;,abbrevToStates[&quot;MD&quot;])" style="fill:#d0d0d0" />
  <path class="c24043" d="m835.88 242.85 10.874-2.058-0.25851 1.262-0.26387 0.713-0.14441 0.245-0.62935 0.406-0.0446 0.25-0.13906 1.672-0.041 2.154-0.32804 3.141-0.68998 0.08-0.68168-0.36058 0.0703-1.7833-1.1538-0.1498-0.21889-1.2474-0.49875-0.0151-0.51177-0.27673-0.77601-1.2117 0.77054-0.32129-0.0831-0.60585-0.63372 0.0891-0.8573 0.3127-0.67438 0.0281-0.83697 0.3127-0.49145-0.54096-0.29596-0.328-0.80229-0.581-0.64362-0.241-0.64896-0.07-0.59548-0.02-0.10519 0.04-0.12123 0.137-0.45642 0.722-0.62044 1.143-0.20859 0.03-0.93244-0.185-0.53665-1.945 4.2094-0.796" id="Washington__MD" onmouseover="handleMouseOverCounty(&quot;Washington&quot;,abbrevToStates[&quot;MD&quot;])" style="fill:#d0d0d0" />
  <path class="c24009" d="m871.7 268.88-1.2999 0.18224-0.56191-1.2589-1.2076-0.26105-2.4824-1.8073-0.19434-0.819-1.1803-4.781 0.0874-0.193 0.48138-0.417 0.44215-0.05 0.21024 0.93525 1.6796-0.0293 7e-3 0.305 0.10519 0.481 0.91462 3.111 0.082 0.225 0.27991 0.515 0.33874 0.45 0.79516 0.577 1.4869 1.198 0.0642 0.12 0.0802 0.476-0.12837 1.045" id="Calvert__MD" onmouseover="handleMouseOverCounty(&quot;Calvert&quot;,abbrevToStates[&quot;MD&quot;])" style="fill:#d0d0d0" />
  <path class="c24041" d="m876.8 253.58 0.16938 0.546 1.0967 1.5975-1.3106 1.6805-0.18007 0.722 0.0571 0.08 0.93958 0.789 0.48137 0.111-0.66277 2.3641-2.0324-0.16769-0.70296-0.50141 0.0553-0.103-0.24782-0.451-0.88782-0.17979-0.92892-1.2662-0.29774 0.03-0.28689 0.57062-0.68478-0.22662-0.0571 0.04-0.18364 0.424v0.234l0.2817 0.266 0.0303 0.233-0.27278 0.248-0.19968-0.305-0.20325-1.519 0.016-0.499 0.34231-1.332 0.0374-0.06 0.46533-0.554 0.47506 0.47765 0.80139-0.0113-0.13399-0.83612 1.4004-1.0391-0.0938-1.4126 2.7177 0.0385" id="Talbot__MD" onmouseover="handleMouseOverCounty(&quot;Talbot&quot;,abbrevToStates[&quot;MD&quot;])" style="fill:#d0d0d0" />
  <path class="c24011" d="m876.8 253.58 0.94817-4.5857 1.4462-1.2653 3.1913 11.362-4.3324 0.02-0.48137-0.111-0.93958-0.789-0.0571-0.08 0.18007-0.722 1.3106-1.6805-1.0967-1.5975-0.16938-0.546" id="Caroline__MD" onmouseover="handleMouseOverCounty(&quot;Caroline&quot;,abbrevToStates[&quot;MD&quot;])" style="fill:#d0d0d0" />
  <path class="c24029" d="m873.67 243.48 4.0507-0.973 0.50634 1.799 0.32091 1.133-2.2981 0.393-1.4637 0.412-0.58657 0.256-0.68284 0.867 0.48424 1.1072-1.6823 1.8988-0.74524 0.354 0.32581 1.614-0.67502-0.0609-0.19813-1.5731-1.0448-1.068-0.025-0.467 0.0642-0.369 0.73989-3.441 0.20146-0.344 0.8433-1.134 1.8649-0.408" id="Kent__MD" onmouseover="handleMouseOverCounty(&quot;Kent&quot;,abbrevToStates[&quot;MD&quot;])" style="fill:#d0d0d0" />
  <path class="c24510" d="m865.29 248.9-0.31114 0.5888-1.3113-0.7028-1.8258-0.53433-0.43934-2.0947 3.1007-0.6458 0.7868 3.3888" id="Baltimore_City__MD" onmouseover="handleMouseOverCounty(&quot;Baltimore_City&quot;,abbrevToStates[&quot;MD&quot;])" style="fill:#d0d0d0" />
  <path class="c24033" d="m859.49 252.15 0.95562 0.48 3.022 2.203 0.65967 1.471 0.65074 3.832 1.1803 4.781h-0.27278l-0.89143-0.265-0.4368-1.222-0.0695-0.128-2.1769-0.508-1.831 0.315-0.56517 0.266-0.23177 0.159-0.082 0.103-0.0464 0.178-0.27991 0.603-1.0626-1.911 0.43324-2.004-9e-3 -0.102 1.8252-2.8805-2.0017-1.2025 1.2302-4.177" id="Prince_George_s__MD" onmouseover="handleMouseOverCounty(&quot;Prince_George_s&quot;,abbrevToStates[&quot;MD&quot;])" style="fill:#d0d0d0" />
  <path class="c24003" d="m867.46 250.94 0.38186 0.70176-0.16844 0.66213 0.83134 0.55611 0.11946 0.25-1.2116 1.1019 0.57157 0.69209-0.44394 1.42-0.19403 0.86913 0.452 0.18031-0.90872 1.8656 0.15511 0.51 0.11767 0.202 0.51525 0.424-1.6796 0.0292-0.21024-0.93525-0.44215 0.05-0.48138 0.417-0.0874 0.193-0.65074-3.832-0.65967-1.471-3.022-2.203 1.9522-3.02 1.2712-0.819 1.3112 0.71087 1.662 0.61392z" id="Anne_Arundel__MD" onmouseover="handleMouseOverCounty(&quot;Anne_Arundel&quot;,abbrevToStates[&quot;MD&quot;])" style="fill:#d0d0d0" />
  <path class="c24027" d="m858.57 247.16 3.8225 2.443-1.9522 3.02-0.95562-0.48-0.28882 0.216-0.75594 0.04-0.20146-0.06-3.687-2.509-0.84508-0.866-0.35301-0.46-0.016-0.05 0.0321-0.123 0.21929-0.239 0.0143-0.02 4.9671-0.909" id="Howard__MD" onmouseover="handleMouseOverCounty(&quot;Howard&quot;,abbrevToStates[&quot;MD&quot;])" style="fill:#d0d0d0" />
  <path class="c24031" d="m853.59 248.09-0.21929 0.239-0.0321 0.123 0.016 0.05 0.35301 0.46 0.84508 0.866 3.687 2.509 0.20146 0.06 0.75594-0.04 0.28882-0.216-1.2302 4.177-0.91461-0.474-0.98236 1.599-0.63731-0.49051-0.84824 0.0808-0.2418-0.0599-0.38243 2e-3 -0.4-0.31474-0.0221-0.69265-0.64609-0.20048-1.0064-0.4202-0.83616 0.09-0.86113 0.04-0.63292-0.04-0.0339-0.01-1.1393-0.765-0.11232-0.08h-0.0107l-0.10162-0.136-0.12302-0.392-5e-3 -0.02 0.0214-0.208 0.0428-0.289 7e-3 -0.105 0.0731-0.193 0.55727-0.23701 0.14874-0.87899 4.4215-4.042" id="Montgomery__MD" onmouseover="handleMouseOverCounty(&quot;Montgomery&quot;,abbrevToStates[&quot;MD&quot;])" style="fill:#d0d0d0" />
  <path class="c24035" d="m876.8 253.58-2.7177-0.0385 0.0938 1.4126-1.4004 1.0391-0.29838-1.241-0.20871-0.39888-0.52103-0.3345-0.28818 0.56823-0.35456-0.12348-0.381 0.25246 0.12437 0.45141-0.75201 0.10792 0.25819 0.9762-0.58157 0.77925-0.0128-0.82962-0.41244-1.5376 0.70223-2.4628 0.60781 1.1183 1.4186-0.20516 0.48991-0.93817-0.35883-0.69591 0.17316-0.50069-0.0573-0.60617 1.6823-1.8988-0.48424-1.1072 0.68284-0.867 0.58657-0.256 1.4637-0.412 2.2981-0.393 0.64184 2.29-1.4462 1.2653-0.94817 4.5857" id="Queen_Anne_s__MD" onmouseover="handleMouseOverCounty(&quot;Queen_Anne_s&quot;,abbrevToStates[&quot;MD&quot;])" style="fill:#d0d0d0" />
  <path class="c24015" d="m869.69 236.06 5.9637-1.277 0.18747 0.70087 0.0184 0.11922 0.0231 0.11514 0.027 0.11188 0.0301 0.10941 0.0326 0.10778 0.0342 0.10694 0.0352 0.10692 0.0354 0.10771 1.641 6.1362-4.0507 0.973-0.0759-0.27165-0.5536-0.0139 0.0307-0.39581 0.64774-0.95976-0.55698-0.20891 0.34095-1.8958-0.24733-0.55154-1.6698 0.70536-3.5729-3.463 1.6795-0.363" id="Cecil__MD" onmouseover="handleMouseOverCounty(&quot;Cecil&quot;,abbrevToStates[&quot;MD&quot;])" style="fill:#d0d0d0" />
  <path class="c24025" d="m867.9 236.44 0.11233-0.02 3.5729 3.463-0.44395 1.2422 0.96369 0.43347 0.19166 0.43632-1.7205 2.024-0.67571 0.799-0.63373 0.90994 0.0349 0.46637-0.32327-0.098-0.27596-0.79734-0.4172-0.3-0.0874-0.206-1.576-1.874-1.0519-0.795-1.0376-0.314-0.36014 0.07-0.46711-0.369-0.72206-1.079-0.16937-0.401-0.57944-2.403 5.666-1.188" id="Harford__MD" onmouseover="handleMouseOverCounty(&quot;Harford&quot;,abbrevToStates[&quot;MD&quot;])" style="fill:#d0d0d0" />
  <path class="c24005" d="m858.49 238.41 3.7422-0.779 0.57944 2.403 0.16937 0.401 0.72206 1.079 0.46711 0.369 0.36014-0.07 1.0376 0.314 1.0519 0.795 1.576 1.874 0.0874 0.206h-0.0874l-0.29774 0.138 0.412 1.0984-0.82919 0.29161-0.17472 1.004 0.30309 0.153 0.0998-0.03-0.0196 0.169-0.0553 0.187-0.47603 0.802-0.24782 0.298-1.084-0.105-0.50634-0.1h-0.0339l-0.7868-3.3898-3.1007 0.6458 0.43934 2.0957 1.8258 0.53433-1.2712 0.819-3.8225-2.443-0.68284-2.394 0.27991-1.817 0.3227-4.541" id="Baltimore_County__MD" onmouseover="handleMouseOverCounty(&quot;Baltimore_County&quot;,abbrevToStates[&quot;MD&quot;])" style="fill:#d0d0d0" />
  <path class="c24013" d="m858.49 238.41-0.3227 4.541-0.27991 1.817 0.68284 2.394-4.9671 0.909 0.36193-2.637 0.0642-0.706-0.0161-0.05-2.1537-1.574-1.9782-0.43134 0.52164-0.88966 0.68997-1.856 3.7387-0.756 3.6584-0.763" id="Carroll__MD" onmouseover="handleMouseOverCounty(&quot;Carroll&quot;,abbrevToStates[&quot;MD&quot;])" style="fill:#d0d0d0" />
  <path class="c24021" d="m846.92 240.76 4.1755-0.827-0.68997 1.856-0.52164 0.88966 1.9782 0.43134 2.1537 1.574 0.0161 0.05-0.0642 0.706-0.36193 2.637-0.0143 0.02-4.4215 4.042-1.5822-0.53266-0.66202-0.83411-0.95554 0.24477-1.0666-0.374 0.32804-3.141 0.041-2.154 0.13906-1.672 0.0446-0.25 0.62935-0.406 0.14441-0.245 0.26387-0.713 0.25851-1.262 0.16759-0.03" id="Frederick__MD" onmouseover="handleMouseOverCounty(&quot;Frederick&quot;,abbrevToStates[&quot;MD&quot;])" style="fill:#d0d0d0" />
  <path d="m893.73 271.13-0.69531 0.23632-0.3868 1.0431-0.43814 1.0538-0.75918 1.4351 0.81124-0.0207-5e-3 0.17592-0.74013 0.18202 1.0267 0.34145 0.62795-2.5775zm-2.6621 4.1973-0.3142-0.19362-2.5e-4 -0.54661 0.20507-1.4648-0.0488-0.38867 0.63476-0.43945 0.0254-0.45313-4.5742 1.5566v2e-3l-0.58984 1.1504-0.8613 0.46617-0.16994 0.53528 1.2191-0.11919-0.0843 0.93219-0.0137 0.2793-0.30273 0.90429-0.084 0.16602-0.28907 0.38672-0.63101-0.35388-0.64751 0.63081 0.31496 0.26218 0.27936-0.286 0.31021 0.2978-0.45999 0.6776-1.1973 3.5684-0.16406 0.57227-0.10938 0.88281 0.0215 0.1211 0.10351 0.19336 1.7383-0.51758 1.0137 0.41015 0.0957 0.9336-0.0606 0.24023-0.0371 0.18945 0.0938 0.21094 0.2246-0.2207 0.22266-0.35938 0.91406-0.18945 0.0137-0.23437-0.68555-0.16407 0.32226-1.1289 0.3086 0.19726 0.043 0.33203 0.21484 0.14649-0.16211 0.31054 0.20508 0.15626 0.13281-0.38086 0.13867 0.0547 0.0391 0.54883 0.48242 0.37891-0.0742-0.19922 0.50781-0.49024 0.24024-1.6211-0.28711-3.0098 0.0625-0.4414 0.53125-2.4297 0.32031-0.84765 0.24805-0.51563 0.0664-0.10352 0.0723-0.11132 0.0723-0.11524 0.11133-0.13672 0.0566-0.0605 0.0469-0.0606 0.14648-0.10156zm-3.209 9.8027 0.0254 6e-3 -0.0254-0.01zm-7.2168-9.5664-0.93164 0.19531 0.0527 0.15039 0.11133 0.50196 0.31836 0.31836 0.48437-0.13672 0.0469-0.44141-0.0312-0.43164z" id="Somerset__MD" onmouseover="handleMouseOverCounty(&quot;Somerset&quot;,abbrevToStates[&quot;MD&quot;])" style="fill:#d0d0d0" transform="translate(0 -.10698)" />
  <path class="c24019" d="m878.05 259.1 2.1454-1.1514 2.1869 1.1314 0.46712 1.665-0.83795 1.469-0.41541 0.378-0.37084 0.209-0.11232 0.21-0.54556 3.568-0.0339 1.725-0.55665 0.51139-0.69553-0.47338-0.72809-0.82745 0.61962-0.29145 0.38276-0.37468-0.52542-0.81436-0.6076-0.0449-2e-3 0.88866-0.50616 0.82823 0.51154 0.60497 0.14286 1.1676-0.69999-0.30782-0.56552-0.0147-0.15844-0.73527-1.0858 0.0902-0.1341 0.53031 1.0386 0.44846-0.32555 0.41442-0.87687-0.55668-0.29665-0.41972-0.4609-0.33687-0.62418-0.21192-0.0802-0.06-0.2496-0.449 0.47573-0.55737-0.82018-0.119-0.74845-1.4696-0.99104-1.1208 1.1977-0.61794 0.13313-0.58813-1.0543-0.73913 0.29196-0.86197 0.0998-0.169 0.3958-0.337 0.16046-0.09 1.462-0.41 0.70296 0.50141 2.0324 0.16769 0.66277-2.3641m0.28883 13.138-0.0392-0.03-0.016 0.01-0.15333-0.266-0.12837-0.451-0.12836-0.958 0.2496-0.304 0.39401-0.09 0.5937 0.484 0.0339 0.137 0.10341 0.339-0.0963 0.456-0.22464 0.467-0.58834 0.207" id="Dorchester__MD" onmouseover="handleMouseOverCounty(&quot;Dorchester&quot;,abbrevToStates[&quot;MD&quot;])" style="fill:#d0d0d0" />
  </g>
 </svg>